<svg xmlns="http://www.w3.org/2000/svg" x="0px" y="0px" width="100" height="100" viewBox="0 0 100 100">
<path fill="#c7ede6" d="M87.215,56.71C88.35,54.555,89,52.105,89,49.5c0-6.621-4.159-12.257-10.001-14.478	C78.999,35.015,79,35.008,79,35c0-11.598-9.402-21-21-21c-9.784,0-17.981,6.701-20.313,15.757C36.211,29.272,34.638,29,33,29	c-7.692,0-14.023,5.793-14.89,13.252C12.906,43.353,9,47.969,9,53.5C9,59.851,14.149,65,20.5,65c0.177,0,0.352-0.012,0.526-0.022	C21.022,65.153,21,65.324,21,65.5C21,76.822,30.178,86,41.5,86c6.437,0,12.175-2.972,15.934-7.614C59.612,80.611,62.64,82,66,82	c4.65,0,8.674-2.65,10.666-6.518C77.718,75.817,78.837,76,80,76c6.075,0,11-4.925,11-11C91,61.689,89.53,58.727,87.215,56.71z"></path><path fill="#fff" d="M18.5,53h-10C8.224,53,8,52.776,8,52.5S8.224,52,8.5,52h10c0.276,0,0.5,0.224,0.5,0.5 S18.777,53,18.5,53z"></path><path fill="#fff" d="M21.5,53h-1c-0.276,0-0.5-0.224-0.5-0.5s0.224-0.5,0.5-0.5h1c0.276,0,0.5,0.224,0.5,0.5 S21.777,53,21.5,53z"></path><path fill="#fff" d="M26.491,55H17.5c-0.276,0-0.5-0.224-0.5-0.5s0.224-0.5,0.5-0.5h8.991c0.276,0,0.5,0.224,0.5,0.5 S26.767,55,26.491,55z"></path><path fill="#fff" d="M15.5,55h-1c-0.276,0-0.5-0.224-0.5-0.5s0.224-0.5,0.5-0.5h1c0.276,0,0.5,0.224,0.5,0.5 S15.777,55,15.5,55z"></path><path fill="#fff" d="M12.5,55h-2c-0.276,0-0.5-0.224-0.5-0.5s0.224-0.5,0.5-0.5h2c0.276,0,0.5,0.224,0.5,0.5 S12.777,55,12.5,55z"></path><path fill="#fff" d="M18.5,57h-2c-0.276,0-0.5-0.224-0.5-0.5s0.224-0.5,0.5-0.5h2c0.276,0,0.5,0.224,0.5,0.5 S18.776,57,18.5,57z"></path><path fill="#fff" d="M21.5,48c-0.177,0-0.823,0-1,0c-0.276,0-0.5,0.224-0.5,0.5c0,0.276,0.224,0.5,0.5,0.5 c0.177,0,0.823,0,1,0c0.276,0,0.5-0.224,0.5-0.5C22,48.224,21.776,48,21.5,48z"></path><path fill="#fff" d="M21.5,50c-0.177,0-4.823,0-5,0c-0.276,0-0.5,0.224-0.5,0.5c0,0.276,0.224,0.5,0.5,0.5 c0.177,0,4.823,0,5,0c0.276,0,0.5-0.224,0.5-0.5C22,50.224,21.776,50,21.5,50z"></path><path fill="#fff" d="M26.5,52c-0.177,0-2.823,0-3,0c-0.276,0-0.5,0.224-0.5,0.5c0,0.276,0.224,0.5,0.5,0.5 c0.177,0,2.823,0,3,0c0.276,0,0.5-0.224,0.5-0.5C27,52.224,26.776,52,26.5,52z"></path><g><path fill="#fff" d="M83.5,67h-10c-0.276,0-0.5-0.224-0.5-0.5s0.224-0.5,0.5-0.5h10c0.276,0,0.5,0.224,0.5,0.5 S83.776,67,83.5,67z"></path><path fill="#fff" d="M87.5,67h-2c-0.276,0-0.5-0.224-0.5-0.5s0.224-0.5,0.5-0.5h2c0.276,0,0.5,0.224,0.5,0.5 S87.776,67,87.5,67z"></path><path fill="#fff" d="M92.5,69h-10c-0.276,0-0.5-0.224-0.5-0.5s0.224-0.5,0.5-0.5h10c0.276,0,0.5,0.224,0.5,0.5 S92.777,69,92.5,69z"></path><path fill="#fff" d="M80.5,69h-1c-0.276,0-0.5-0.224-0.5-0.5s0.224-0.5,0.5-0.5h1c0.276,0,0.5,0.224,0.5,0.5 S80.776,69,80.5,69z"></path><path fill="#fff" d="M77.47,69H75.5c-0.276,0-0.5-0.224-0.5-0.5s0.224-0.5,0.5-0.5h1.97c0.276,0,0.5,0.224,0.5,0.5 S77.746,69,77.47,69z"></path><path fill="#fff" d="M86.5,65h-5c-0.276,0-0.5-0.224-0.5-0.5s0.224-0.5,0.5-0.5h5c0.276,0,0.5,0.224,0.5,0.5 S86.777,65,86.5,65z"></path><path fill="#fff" d="M83.5,71h-2c-0.276,0-0.5-0.224-0.5-0.5s0.224-0.5,0.5-0.5h2c0.276,0,0.5,0.224,0.5,0.5 S83.776,71,83.5,71z"></path></g><g><path fill="#fdfcef" d="M38.5,28.5V29h3v-0.5c0,0,4.242,0,5.5,0c2.485,0,4.5-2.015,4.5-4.5c0-2.333-1.782-4.229-4.055-4.455 C47.467,19.364,47.5,19.187,47.5,19c0-2.485-2.015-4.5-4.5-4.5c-1.438,0-2.703,0.686-3.527,1.736 C39.333,13.6,37.171,11.5,34.5,11.5c-2.761,0-5,2.239-5,5c0,0.446,0.077,0.87,0.187,1.282C29.045,17.005,28.086,16.5,27,16.5 c-1.781,0-3.234,1.335-3.455,3.055C23.364,19.533,23.187,19.5,23,19.5c-2.485,0-4.5,2.015-4.5,4.5s2.015,4.5,4.5,4.5s9.5,0,9.5,0 H38.5z"></path><path fill="#472b29" d="M34.5,11c-3.033,0-5.5,2.467-5.5,5.5c0,0.016,0,0.031,0,0.047C28.398,16.192,27.71,16,27,16 c-1.831,0-3.411,1.261-3.858,3.005C23.095,19.002,23.048,19,23,19c-2.757,0-5,2.243-5,5s2.243,5,5,5h15.5 c0.276,0,0.5-0.224,0.5-0.5S38.776,28,38.5,28H23c-2.206,0-4-1.794-4-4s1.794-4,4-4c0.117,0,0.23,0.017,0.343,0.032l0.141,0.019 c0.021,0.003,0.041,0.004,0.062,0.004c0.246,0,0.462-0.185,0.495-0.437C24.232,18.125,25.504,17,27,17 c0.885,0,1.723,0.401,2.301,1.1c0.098,0.118,0.241,0.182,0.386,0.182c0.078,0,0.156-0.018,0.228-0.056 c0.209-0.107,0.314-0.346,0.254-0.573C30.054,17.218,30,16.852,30,16.5c0-2.481,2.019-4.5,4.5-4.5c2.381,0,4.347,1.872,4.474,4.263 c0.011,0.208,0.15,0.387,0.349,0.45c0.05,0.016,0.101,0.024,0.152,0.024c0.15,0,0.296-0.069,0.392-0.192 C40.638,15.563,41.779,15,43,15c2.206,0,4,1.794,4,4c0,0.117-0.017,0.23-0.032,0.343l-0.019,0.141 c-0.016,0.134,0.022,0.268,0.106,0.373c0.084,0.105,0.207,0.172,0.34,0.185C49.451,20.247,51,21.949,51,24c0,2.206-1.794,4-4,4 h-5.5c-0.276,0-0.5,0.224-0.5,0.5s0.224,0.5,0.5,0.5H47c2.757,0,5-2.243,5-5c0-2.397-1.689-4.413-4.003-4.877 C47.999,19.082,48,19.041,48,19c0-2.757-2.243-5-5-5c-1.176,0-2.293,0.416-3.183,1.164C39.219,12.76,37.055,11,34.5,11L34.5,11z"></path><path fill="#472b29" d="M33,18c-1.403,0-2.609,0.999-2.913,2.341C29.72,20.119,29.301,20,28.875,20 c-1.202,0-2.198,0.897-2.353,2.068C26.319,22.022,26.126,22,25.937,22c-1.529,0-2.811,1.2-2.918,2.732 C23.01,24.87,23.114,24.99,23.251,25c0.006,0,0.012,0,0.018,0c0.13,0,0.24-0.101,0.249-0.232c0.089-1.271,1.151-2.268,2.419-2.268 c0.229,0,0.47,0.042,0.738,0.127c0.022,0.007,0.045,0.01,0.067,0.01c0.055,0,0.11-0.02,0.156-0.054 C26.962,22.537,27,22.455,27,22.375c0-1.034,0.841-1.875,1.875-1.875c0.447,0,0.885,0.168,1.231,0.473 c0.047,0.041,0.106,0.063,0.165,0.063c0.032,0,0.063-0.006,0.093-0.019c0.088-0.035,0.148-0.117,0.155-0.212 C30.623,19.512,31.712,18.5,33,18.5c0.208,0,0.425,0.034,0.682,0.107c0.023,0.007,0.047,0.01,0.07,0.01 c0.109,0,0.207-0.073,0.239-0.182c0.038-0.133-0.039-0.271-0.172-0.309C33.517,18.04,33.256,18,33,18L33,18z"></path><path fill="#472b29" d="M46.883,19.5c-1.326,0-2.508,0.897-2.874,2.182c-0.038,0.133,0.039,0.271,0.172,0.309 C44.205,21.997,44.228,22,44.25,22c0.109,0,0.209-0.072,0.24-0.182C44.795,20.748,45.779,20,46.883,20 c0.117,0,0.23,0.014,0.342,0.029c0.012,0.002,0.023,0.003,0.035,0.003c0.121,0,0.229-0.092,0.246-0.217 c0.019-0.137-0.077-0.263-0.214-0.281C47.158,19.516,47.022,19.5,46.883,19.5L46.883,19.5z"></path></g><g><polygon fill="#ee3e54" points="36.7,24.7 46.3,24.7 46.3,75.361 36.7,76.234"></polygon><path fill="#472b29" d="M45.6,25.4v49.322l-8.2,0.745V25.4H45.6 M47,24H36v53l11-1V24L47,24z"></path><polygon fill="#ee3e54" points="55.7,75.361 55.7,24.7 65.3,24.7 65.3,76.234"></polygon><path fill="#472b29" d="M64.6,25.4v50.067l-8.2-0.745V25.4H64.6 M66,24H55v52l11,1V24L66,24z"></path><polygon fill="#ee3e54" points="55.505,75.343 37.001,24.7 46.507,24.7 64.971,76.203"></polygon><path fill="#472b29" d="M46.015,25.4l17.927,50.007l-7.931-0.721L38.002,25.4H46.015 M47,24H36l19,52l11,1L47,24L47,24z"></path><path fill="#472b29" d="M62.5,36c-0.276,0-0.5-0.224-0.5-0.5v-8c0-0.276,0.224-0.5,0.5-0.5s0.5,0.224,0.5,0.5v8 C63,35.776,62.776,36,62.5,36z"></path><path fill="#472b29" d="M39.5,48c-0.276,0-0.5-0.224-0.5-0.5v-8c0-0.276,0.224-0.5,0.5-0.5s0.5,0.224,0.5,0.5v8 C40,47.776,39.776,48,39.5,48z"></path><g><path fill="#472b29" d="M39.5,74c-0.276,0-0.5-0.224-0.5-0.5v-16c0-0.276,0.224-0.5,0.5-0.5s0.5,0.224,0.5,0.5v16 C40,73.776,39.776,74,39.5,74z"></path></g><g><path fill="#472b29" d="M39.5,55c-0.276,0-0.5-0.224-0.5-0.5v-4c0-0.276,0.224-0.5,0.5-0.5s0.5,0.224,0.5,0.5v4 C40,54.776,39.776,55,39.5,55z"></path></g><g><path fill="#472b29" d="M62.5,59c-0.276,0-0.5-0.224-0.5-0.5v-20c0-0.276,0.224-0.5,0.5-0.5s0.5,0.224,0.5,0.5v20 C63,58.776,62.776,59,62.5,59z"></path></g></g><g><path fill="#fdfcef" d="M78.5,53.5c0,0,1.567,0,3.5,0s3.5-1.567,3.5-3.5c0-1.781-1.335-3.234-3.055-3.455 C82.473,46.366,82.5,46.187,82.5,46c0-1.933-1.567-3.5-3.5-3.5c-1.032,0-1.95,0.455-2.59,1.165 c-0.384-1.808-1.987-3.165-3.91-3.165c-2.209,0-4,1.791-4,4c0,0.191,0.03,0.374,0.056,0.558C68.128,44.714,67.592,44.5,67,44.5 c-1.228,0-2.245,0.887-2.455,2.055C64.366,46.527,64.187,46.5,64,46.5c-1.933,0-3.5,1.567-3.5,3.5s1.567,3.5,3.5,3.5s7.5,0,7.5,0 V54h7V53.5z"></path><path fill="#472b29" d="M80.25,49C80.112,49,80,48.888,80,48.75c0-1.223,0.995-2.218,2.218-2.218 c0.034,0.009,0.737-0.001,1.244,0.136c0.133,0.036,0.212,0.173,0.176,0.306c-0.036,0.134-0.173,0.213-0.306,0.176 c-0.444-0.12-1.1-0.12-1.113-0.118c-0.948,0-1.719,0.771-1.719,1.718C80.5,48.888,80.388,49,80.25,49z"></path><circle cx="73.5" cy="53.5" r=".5" fill="#472b29"></circle><path fill="#472b29" d="M82,54h-3.5c-0.276,0-0.5-0.224-0.5-0.5s0.224-0.5,0.5-0.5H82c1.654,0,3-1.346,3-3 c0-1.496-1.125-2.768-2.618-2.959c-0.134-0.018-0.255-0.088-0.336-0.196s-0.115-0.244-0.094-0.377C81.975,46.314,82,46.16,82,46 c0-1.654-1.346-3-3-3c-0.85,0-1.638,0.355-2.219,1c-0.125,0.139-0.321,0.198-0.5,0.148c-0.182-0.049-0.321-0.195-0.36-0.379 C75.58,42.165,74.141,41,72.5,41c-1.93,0-3.5,1.57-3.5,3.5c0,0.143,0.021,0.28,0.041,0.418c0.029,0.203-0.063,0.438-0.242,0.54 c-0.179,0.102-0.396,0.118-0.556-0.01C67.878,45.155,67.449,45,67,45c-0.966,0-1.792,0.691-1.963,1.644 c-0.048,0.267-0.296,0.446-0.569,0.405C64.314,47.025,64.16,47,64,47c-1.654,0-3,1.346-3,3s1.346,3,3,3h7.5 c0.276,0,0.5,0.224,0.5,0.5S71.776,54,71.5,54H64c-2.206,0-4-1.794-4-4s1.794-4,4-4c0.059,0,0.116,0.002,0.174,0.006 C64.588,44.82,65.711,44,67,44c0.349,0,0.689,0.061,1.011,0.18C68.176,41.847,70.126,40,72.5,40c1.831,0,3.466,1.127,4.153,2.774 C77.333,42.276,78.155,42,79,42c2.206,0,4,1.794,4,4c0,0.048-0.001,0.095-0.004,0.142C84.739,46.59,86,48.169,86,50 C86,52.206,84.206,54,82,54z"></path><path fill="#472b29" d="M76.5,53c-0.159,0-0.841,0-1,0c-0.276,0-0.5,0.224-0.5,0.5c0,0.276,0.224,0.5,0.5,0.5 c0.159,0,0.841,0,1,0c0.276,0,0.5-0.224,0.5-0.5C77,53.224,76.776,53,76.5,53z"></path></g>
</svg>
